Coordinates
version=1
nRows=19
nColumns=36
inDegrees=yes

Units are S.I. units (second, meters, Newtons, ...)
If the header above contains a line with 'inDegrees', this indicates whether rotational values are in degrees (yes) or radians (no).

endheader
time	pelvis_tilt	pelvis_list	pelvis_rotation	pelvis_tx	pelvis_ty	pelvis_tz	hip_flexion_r	hip_adduction_r	hip_rotation_r	knee_angle_r	knee_angle_r_beta	ankle_angle_r	subtalar_angle_r	mtp_angle_r	hip_flexion_l	hip_adduction_l	hip_rotation_l	knee_angle_l	knee_angle_l_beta	ankle_angle_l	subtalar_angle_l	mtp_angle_l	lumbar_extension	lumbar_bending	lumbar_rotation	arm_flex_r	arm_add_r	arm_rot_r	elbow_flex_r	pro_sup_r	arm_flex_l	arm_add_l	arm_rot_l	elbow_flex_l	pro_sup_l
      3.16666670	      2.34526870	      0.88632990	      1.77626203	      0.31173458	      1.13927451	     -0.10141014	     -8.07265557	     -4.68957749	     -9.97758336	      0.66651742	      0.01163292	     -3.87992007	    -21.66965667	     -7.49999987	     -4.25728145	     -0.78856215	      1.02071036	      0.79776085	      0.01392355	     -2.44667555	    -14.34056025	     -7.49999987	     -5.61349834	     -1.27450860	      4.34440495	     -5.12886526	      4.64168583	    -80.56609046	    100.63808922	     34.52198298	      4.27475599	     -2.76381695	    -52.00975537	     98.44752990	     48.92037672
      3.18333330	      2.34852719	      0.87531603	      1.68356187	      0.31188829	      1.13929544	     -0.10122608	     -8.00303842	     -4.74916722	     -9.79782056	      0.69994005	      0.01221626	     -3.99117427	    -21.96176622	     -7.49999987	     -4.20501382	     -0.72072549	      1.01735054	      0.80752197	      0.01409392	     -2.42555346	    -14.45617392	     -7.49999987	     -5.74934646	     -1.11961738	      4.19727102	     -4.94826501	      4.92748877	    -78.82673523	    101.41338134	     36.45281350	      4.08158002	     -2.78714475	    -52.40455762	     98.39325103	     49.17965113
      3.20000000	      2.33339603	      0.81360211	      1.65297304	      0.31618560	      1.13934557	     -0.09694561	     -7.98778101	     -4.65010658	     -9.76880467	      0.70132511	      0.01224043	     -3.96326492	    -21.93022046	     -7.49999987	     -4.19909498	     -0.78379305	      1.14907853	      0.81382611	      0.01420395	     -2.40105137	    -14.41902942	     -7.49999987	     -5.77563194	     -1.16238038	      4.62997100	     -4.47175998	      5.82400415	    -78.08475855	    101.53457199	     36.49021361	      4.29869809	     -2.66764652	    -52.17892328	     98.40524307	     49.19292740
      3.21666670	      2.50500565	      0.82199753	      1.56111505	      0.31616037	      1.13935150	     -0.09680945	     -8.20364943	     -4.64674288	     -9.59329526	      0.73237742	      0.01278240	     -3.80223338	    -21.99926663	     -7.49999987	     -4.43372448	     -0.78276798	      1.02142422	      0.78879956	      0.01376715	     -2.27705988	    -14.34606261	     -7.49999987	     -5.99490914	     -1.03150830	      4.13341804	     -4.42565275	      6.42909998	    -74.52421317	    102.48786278	     43.65094801	      3.74960378	     -2.82307087	    -52.76795773	     98.39419686	     52.23237285
      3.23333330	      2.48383864	      0.83114512	      1.57393556	      0.31176055	      1.13931242	     -0.10122848	     -8.18488922	     -4.66955459	     -9.62858400	      0.75453892	      0.01316919	     -3.80366788	    -21.94723979	     -7.49999987	     -4.35239759	     -0.73459129	      1.14807483	      0.80538441	      0.01405661	     -2.18352369	    -14.32549866	     -7.49999987	     -5.92885856	     -1.11482451	      4.50072100	     -3.96907051	      7.09450314	    -73.65669300	    102.71658928	     43.63201283	      4.03729012	     -2.50952698	    -52.39168422	     98.49207668	     52.18968796
      3.25000000	      2.58465187	      0.84996709	      1.55132779	      0.31185088	      1.13942207	     -0.10114443	     -8.25590919	     -4.72874790	     -9.64440953	      0.77132941	      0.01346224	     -3.67228097	    -22.09090704	     -7.49999987	     -4.42365762	     -0.66374843	      1.30148371	      0.80096272	      0.01397944	     -2.19954685	    -14.50733954	     -7.49999987	     -6.20973045	     -0.97334680	      4.12127683	     -4.28592106	      7.22288447	    -69.32209947	    103.49340877	     46.93020676	      3.55893774	     -2.44246290	    -52.51139113	     98.78875641	     52.54283120
      3.26666670	      2.63127270	      0.86038010	      1.48737232	      0.31179396	      1.13950307	     -0.10116610	     -8.25655261	     -4.81229112	     -9.71469271	      0.80747662	      0.01409313	     -3.65979476	    -22.12214002	     -7.49999987	     -4.42200149	     -0.59308217	      1.20415425	      0.82809396	      0.01445297	     -2.04776163	    -14.25977941	     -7.49999987	     -6.37695213	     -0.90599395	      4.23919160	     -4.50393233	      7.38004123	    -65.90001065	    104.02085939	     46.03360096	      3.43655307	     -2.25684342	    -52.16094909	     98.92913011	     49.58725651
      3.28333330	      2.57590416	      0.88369869	      1.43929323	      0.31195001	      1.13943663	     -0.10086381	     -8.14009082	     -4.87866112	     -9.63010899	      0.83573485	      0.01458632	     -3.71532552	    -22.35570102	     -7.49999987	     -4.31572629	     -0.52749706	      1.41834471	      0.86578108	      0.01511073	     -2.21570270	    -14.73728139	     -7.49999987	     -6.34434356	     -0.86942695	      4.29219936	     -5.16884433	      7.11668928	    -62.93631917	    104.16568201	     49.86974440	      3.09516643	     -2.15189649	    -52.09277451	     98.95510996	     51.79017168
      3.30000000	      2.61651348	      0.86672629	      1.41579935	      0.31190821	      1.13953417	     -0.10094949	     -8.15038785	     -4.90101625	     -9.79628488	      0.86941840	      0.01517421	     -3.69055745	    -22.23576888	     -7.49999987	     -4.31642534	     -0.51409880	      1.39861927	      0.90719364	      0.01583352	     -2.11657859	    -14.56346475	     -7.49999987	     -6.40459145	     -0.77972226	      4.30027877	     -6.00446411	      6.46560836	    -59.91982402	    104.34282651	     49.25928729	      2.70495874	     -1.87805043	    -52.11012398	     99.19808848	     49.87789827
      3.31666670	      2.64994797	      0.89237125	      1.36472302	      0.31196403	      1.13965853	     -0.10071043	     -8.16249803	     -4.95838764	     -9.89899276	      0.88795919	      0.01549781	     -3.79585416	    -22.25371844	     -7.49999987	     -4.33647387	     -0.47446419	      1.28908350	      0.94738196	      0.01653493	     -1.99491566	    -14.23330285	     -7.49999987	     -6.40160117	     -0.75956145	      4.40996845	     -6.78754135	      5.91237474	    -57.28954274	    104.14666991	     53.20647833	      2.28771906	     -1.36942468	    -52.66752996	     99.39535596	     52.96422525
      3.33333330	      2.54766933	      0.90543649	      1.26788991	      0.31622823	      1.14283415	     -0.09650470	     -8.08205105	     -4.92797056	     -9.85096147	      0.85898783	      0.01499217	     -3.70934547	    -21.96276458	     -7.49999987	     -4.28637951	     -0.51866493	      1.44244921	      0.94725627	      0.01653274	     -2.28138363	    -14.60919682	     -7.49999987	     -6.22613447	     -0.76107672	      4.42049320	     -7.77678933	      5.45618444	    -53.91641424	    104.06629692	     53.13893948	      1.30091283	     -1.05248100	    -53.00429585	     99.77933852	     51.76811025
      3.35000000	      2.50564396	      0.88249402	      1.20441915	      0.31620221	      1.14248643	     -0.09629824	     -8.09348088	     -4.84692646	     -9.90090213	      0.82626068	      0.01442097	     -3.78832965	    -21.80192922	     -7.49999987	     -4.32229685	     -0.60066782	      1.42366548	      0.94946292	      0.01657125	     -2.27192661	    -14.51351224	     -7.49999987	     -6.09702970	     -0.75100583	      4.65866540	     -8.75186302	      4.99662568	    -49.94848379	    103.99438279	     55.27431159	      0.61023043	     -0.72070180	    -53.13421313	    100.08568857	     52.75745284
      3.36666670	      2.46976019	      0.87585120	      1.13570356	      0.31165280	      1.14212838	     -0.10076919	     -8.05131831	     -4.87326621	    -10.00920800	      0.75882134	      0.01324393	     -3.70542588	    -21.68186728	     -7.49999987	     -4.29397511	     -0.58816117	      1.44343275	      0.92812760	      0.01619888	     -2.26279368	    -14.45530330	     -7.49999987	     -6.07029162	     -0.69880509	      5.51765575	     -9.90933171	      4.49427524	    -46.59645345	    104.20375993	     55.58878452	      0.34171325	     -0.09090425	    -52.38364722	    100.17251637	     52.68427989
      3.38333330	      2.37518903	      0.89601381	      1.14723869	      0.31169497	      1.14186452	     -0.10065129	     -7.95164422	     -4.93071086	    -10.17523434	      0.71183585	      0.01242388	     -3.59708508	    -21.50326705	     -7.49999987	     -4.17859513	     -0.56142835	      1.52871164	      0.90973913	      0.01587794	     -2.31727514	    -14.39250650	     -7.49999987	     -6.00764380	     -0.61826730	      4.88841294	    -10.20061374	      3.58099960	    -41.76505214	    103.71989238	     58.41464532	     -0.72909763	      0.30381213	    -53.21951701	    100.80207103	     53.88774237
      3.40000000	      2.33017767	      0.88232472	      1.17432247	      0.31158428	      1.14162753	     -0.10072173	     -7.87771711	     -4.94366945	    -10.32883733	      0.70252016	      0.01226129	     -3.53692946	    -21.40926865	     -7.49999987	     -4.11637014	     -0.55424441	      1.56804082	      0.90023977	      0.01571215	     -2.27808465	    -14.25333543	     -7.49999987	     -6.01995863	     -0.56743859	      5.04054027	    -10.63803622	      2.89870343	    -37.51914651	    103.60699934	     60.00455703	     -1.00687297	      0.60239391	    -53.11816098	    101.10321289	     55.30250574
      3.41666670	      2.25974199	      0.91161977	      1.13898783	      0.31161220	      1.14153793	     -0.10059801	     -7.76663990	     -4.98961664	    -10.32836964	      0.66225737	      0.01155857	     -3.58236722	    -21.36048409	     -7.49999987	     -4.01668235	     -0.50278053	      1.66521693	      0.90108046	      0.01572682	     -2.48143088	    -14.40082453	     -7.49999987	     -5.99187413	     -0.60366576	      5.20781435	    -10.74217499	      1.97851865	    -33.08513157	    103.27661866	     61.05677460	     -1.36297031	      0.87984174	    -53.00780572	    101.54375313	     55.68622226
      3.43333330	      2.12550123	      0.92780266	      1.15218213	      0.31155218	      1.14127418	     -0.10074945	     -7.62706260	     -5.01718543	    -10.33840500	      0.62971353	      0.01099057	     -3.67656651	    -21.39927196	     -7.49999987	     -3.85430068	     -0.47268636	      1.76875344	      0.90443793	      0.01578542	     -2.64567205	    -14.43392660	     -7.49999987	     -5.89118171	     -0.59070780	      5.36848841	    -10.66261117	      1.14632905	    -29.13664508	    103.06662360	     61.78001883	     -2.02563114	      1.42997641	    -53.02575141	    102.41969806	     56.22518906
      3.45000000	      2.10973029	      0.95750339	      1.19700676	      0.31179259	      1.14117541	     -0.10057881	     -7.60772656	     -5.05328063	    -10.55188384	      0.64340548	      0.01122954	     -3.48763228	    -21.13947213	     -7.49999987	     -3.82345989	     -0.44417478	      1.94119380	      0.91016469	      0.01588537	     -2.72988899	    -14.56269702	     -7.49999987	     -5.90379347	     -0.64566774	      5.58814373	    -10.52914119	      0.37886130	    -25.73123281	    102.67918407	     62.31559150	     -2.50516786	      1.95785063	    -52.99677117	    103.24624215	     56.62438187
      3.46666670	      2.10107332	      0.97001308	      1.23169349	      0.31171099	      1.14116261	     -0.10065094	     -7.58802818	     -5.06063970	    -10.52561363	      0.66310980	      0.01157345	     -3.55125502	    -21.33518271	     -7.49999987	     -3.80234115	     -0.44446295	      1.94544714	      0.91716398	      0.01600753	     -2.65560391	    -14.31173190	     -7.49999987	     -5.91097192	     -0.68584823	      5.77315232	    -10.37646422	     -0.28809555	    -22.76955924	    102.42676182	     62.46955133	     -3.27993696	      2.71701253	    -53.10463541	    104.49696765	     57.81445811
